<svg xmlns="http://www.w3.org/2000/svg" viewBox="0 0 41.5 41.5"><defs><style>.cls-1{fill:#135;}</style></defs><title>Bar-Blue</title><g id="Layer_2" data-name="Layer 2"><g id="Layer_1-2" data-name="Layer 1"><path class="cls-1" d="M40.75,40H38.9V13.07a.75.75,0,0,0-.75-.75H33.08a.75.75,0,0,0-.75.75V40H29V20.2a.75.75,0,0,0-.75-.75H23.17a.75.75,0,0,0-.75.75V40H19.08V17.79a.75.75,0,0,0-.75-.75H13.26a.75.75,0,0,0-.75.75V40H9.17V30.74A.75.75,0,0,0,8.42,30H3.35a.75.75,0,0,0-.75.75V40H.75a.75.75,0,0,0,0,1.5h40a.75.75,0,0,0,0-1.5ZM4.1,40V31.49H7.67V40ZM14,40V18.54h3.57V40Zm9.91,0V21h3.57V40Zm9.91,0V13.82H37.4V40Z"/><path class="cls-1" d="M3.29,22.13a.74.74,0,0,0,.51-.2l13.15-12,9.91,2.4a.74.74,0,0,0,.7-.19l9.91-9.51V6.14a.75.75,0,0,0,1.5,0V.75A.75.75,0,0,0,38.21,0H32.9a.75.75,0,0,0,0,1.5h3.59l-9.69,9.29L16.91,8.4a.75.75,0,0,0-.68.17L2.79,20.83a.75.75,0,0,0,.51,1.3Z"/></g></g></svg>