<?xml version="1.0" encoding="utf-8"?>
<!-- Generator: Adobe Illustrator 21.1.0, SVG Export Plug-In . SVG Version: 6.00 Build 0)  -->
<svg version="1.1" id="Layer_1" xmlns="http://www.w3.org/2000/svg" xmlns:xlink="http://www.w3.org/1999/xlink" x="0px" y="0px"
	 viewBox="0 0 41.5 41.5" style="enable-background:new 0 0 41.5 41.5;" xml:space="preserve">
<style type="text/css">
	.st0{fill:#FFFFFF;}
</style>
<title>Table</title>
<g id="Layer_2">
	<g id="Layer_1-2">
		<path class="st0" d="M40.8,0h-40C0.3,0,0,0.3,0,0.8v40c0,0.4,0.3,0.8,0.8,0.8h40c0.4,0,0.8-0.3,0.8-0.8v-40
			C41.5,0.3,41.2,0,40.8,0z M40,13.3h-9.5V8.2H40V13.3z M40,20h-9.5v-5.2H40V20z M40,26.7h-9.5v-5.2H40V26.7z M1.5,21.5h5.4v5.2H1.5
			V21.5z M1.5,14.8h5.4V20H1.5V14.8z M1.5,8.2h5.4v5.2H1.5V8.2z M29,20h-9.6v-5.2H29V20z M18,20H8.4v-5.2H18L18,20z M8.4,21.5H18
			v5.2H8.4V21.5z M19.4,21.5H29v5.2h-9.6L19.4,21.5z M29,13.3h-9.6V8.2H29V13.3z M18,13.3H8.4V8.2H18L18,13.3z M1.5,28.2h5.4v5.2
			H1.5V28.2z M8.4,28.2H18v5.2H8.4V28.2z M19.4,28.2H29v5.2h-9.6L19.4,28.2z M30.4,28.2H40v5.2h-9.5L30.4,28.2z M40,6.7h-9.5V1.5H40
			V6.7z M29,6.7h-9.6V1.5H29V6.7z M18,6.7H8.4V1.5H18L18,6.7z M1.5,34.8h5.4V40H1.5V34.8z M8.4,34.8H18V40H8.4V34.8z M19.4,34.8H29
			V40h-9.6L19.4,34.8z M40,40h-9.5v-5.2H40V40z"/>
	</g>
</g>
</svg>
