<?xml version="1.0" encoding="utf-8"?>
<!-- Generator: Adobe Illustrator 21.1.0, SVG Export Plug-In . SVG Version: 6.00 Build 0)  -->
<svg version="1.1" id="Layer_1" xmlns="http://www.w3.org/2000/svg" xmlns:xlink="http://www.w3.org/1999/xlink" x="0px" y="0px"
	 viewBox="0 0 41.5 41.5" style="enable-background:new 0 0 41.5 41.5;" xml:space="preserve">
<style type="text/css">
	.st0{fill:#FFFFFF;}
</style>
<title>Bar-Blue</title>
<g id="Layer_2">
	<g id="Layer_1-2">
		<path class="st0" d="M40.8,40h-1.8V13.1c0-0.4-0.3-0.8-0.8-0.8h-5.1c-0.4,0-0.8,0.3-0.8,0.8V40H29V20.2c0-0.4-0.3-0.8-0.8-0.8
			h-5.1c-0.4,0-0.8,0.3-0.8,0.8V40h-3.3V17.8c0-0.4-0.3-0.8-0.8-0.8h-5.1c-0.4,0-0.8,0.3-0.8,0.8V40H9.2v-9.3c0-0.4-0.3-0.7-0.8-0.7
			H3.3c-0.4,0-0.8,0.3-0.8,0.8V40H0.8C0.3,40,0,40.3,0,40.8s0.3,0.8,0.8,0.8h40c0.4,0,0.8-0.3,0.8-0.8S41.2,40,40.8,40z M4.1,40
			v-8.5h3.6V40H4.1z M14,40V18.5h3.6V40H14z M23.9,40V21h3.6v19H23.9z M33.8,40V13.8h3.6V40H33.8z"/>
		<path class="st0" d="M3.3,22.1c0.2,0,0.4-0.1,0.5-0.2l13.1-12l9.9,2.4c0.3,0.1,0.5,0,0.7-0.2l9.9-9.5v3.5c0,0.4,0.3,0.8,0.8,0.8
			S39,6.6,39,6.1V0.8C39,0.3,38.6,0,38.2,0c0,0,0,0,0,0h-5.3c-0.4,0-0.8,0.3-0.8,0.8s0.3,0.8,0.8,0.8h3.6l-9.7,9.3l-9.9-2.4
			c-0.2-0.1-0.5,0-0.7,0.2L2.8,20.8c-0.3,0.3-0.3,0.8,0,1.1C2.9,22,3.1,22.1,3.3,22.1L3.3,22.1z"/>
	</g>
</g>
</svg>
