<?xml version="1.0" encoding="utf-8"?>
<!-- Generator: Adobe Illustrator 22.1.0, SVG Export Plug-In . SVG Version: 6.00 Build 0)  -->
<svg width="510" height="382" version="1.1" id="Layer_1" xmlns="http://www.w3.org/2000/svg" xmlns:xlink="http://www.w3.org/1999/xlink" x="0px" y="0px"
	 viewBox="0 0 510 382" style="enable-background:new 0 0 510 382;" xml:space="preserve">
<style type="text/css">
	.st0{fill:#E0E0E0;}
	.st1{fill:none;stroke:#FEFDF4;stroke-width:1.94;stroke-miterlimit:10;}
	.st2{fill:none;stroke:#424242;stroke-width:2;stroke-miterlimit:10;}
	.st3{fill:none;stroke:#424242;stroke-width:1.48;stroke-miterlimit:10;}
	.st4{fill:#424242;}
	.st5{fill:#9E9E9E;}
	.st6{fill:#FEFDF4;}
	.st7{fill:none;stroke:#FEFDF4;stroke-width:4.52;stroke-miterlimit:10;}
	.st8{fill:none;stroke:#FEFDF4;stroke-width:1.43;stroke-miterlimit:10;}
	.st9{fill:#757575;}
	.st10{fill:#BDBDBD;}
	.st11{fill:none;stroke:#9E9E9E;stroke-miterlimit:10;}
	.st12{fill:none;stroke:#010101;stroke-width:1.24;stroke-linecap:round;stroke-linejoin:round;}
	.st13{fill:#010101;}
</style>
<path class="st0" d="M420.5,63.5H103.1c-3.9,0-7.2,3.2-7.2,7.1v264.2c0,3.9,3.2,7.1,7.2,7.1h317.4c3.9,0,7.1-3.2,7.1-7.1V70.7
	C427.6,66.7,424.4,63.5,420.5,63.5z"/>
<path class="st1" d="M95.9,97h331.7"/>
<path class="st1" d="M420.5,63.5H103.1c-3.9,0-7.2,3.2-7.2,7.1v264.2c0,3.9,3.2,7.1,7.2,7.1h317.4c3.9,0,7.1-3.2,7.1-7.1V70.7
	C427.6,66.7,424.4,63.5,420.5,63.5z"/>
<path class="st1" d="M124,85.3c2.6,0,4.7-2.1,4.7-4.7c0-2.6-2.1-4.7-4.7-4.7c-2.6,0-4.7,2.1-4.7,4.7C119.3,83.2,121.4,85.3,124,85.3
	z"/>
<path class="st1" d="M142.1,85.3c2.6,0,4.7-2.1,4.7-4.7c0-2.6-2.1-4.7-4.7-4.7s-4.7,2.1-4.7,4.7C137.5,83.2,139.6,85.3,142.1,85.3z"
	/>
<path class="st1" d="M160.3,85.3c2.6,0,4.7-2.1,4.7-4.7c0-2.6-2.1-4.7-4.7-4.7c-2.6,0-4.7,2.1-4.7,4.7
	C155.6,83.2,157.7,85.3,160.3,85.3z"/>
<path class="st2" d="M145.4,216.7H11.8c-5.7,0-10.4,4.6-10.4,10.3v54.2c0,5.7,4.6,10.4,10.4,10.4h133.5c5.7,0,10.3-4.6,10.3-10.4
	V227C155.7,221.3,151.1,216.7,145.4,216.7z"/>
<path class="st3" d="M22.3,230.6c0,0.6-0.2,1.3-0.5,1.8c-0.4,0.5-0.9,1-1.5,1.2c-0.6,0.2-1.3,0.3-1.9,0.2c-0.6-0.1-1.2-0.4-1.7-0.9
	c-0.5-0.5-0.8-1-0.9-1.7c-0.1-0.6-0.1-1.3,0.2-1.9c0.2-0.6,0.7-1.1,1.2-1.5c0.5-0.4,1.2-0.6,1.8-0.6c0.9,0,1.7,0.3,2.3,1
	C22,228.9,22.3,229.7,22.3,230.6L22.3,230.6z"/>
<path class="st3" d="M31.7,233.9c1.8,0,3.3-1.5,3.3-3.3c0-1.8-1.5-3.3-3.3-3.3c-1.8,0-3.3,1.5-3.3,3.3
	C28.5,232.4,29.9,233.9,31.7,233.9z"/>
<path class="st3" d="M44.4,233.9c1.8,0,3.3-1.5,3.3-3.3c0-1.8-1.5-3.3-3.3-3.3c-1.8,0-3.3,1.5-3.3,3.3
	C41.1,232.4,42.6,233.9,44.4,233.9z"/>
<path class="st3" d="M1.5,242.9h154.2"/>
<path class="st2" d="M473.5,11.4h-65.7c-6.8,0-12.2,5.5-12.2,12.2v52.3c0,6.8,5.5,12.2,12.2,12.2h65.7c6.8,0,12.2-5.5,12.2-12.2
	V23.6C485.7,16.9,480.2,11.4,473.5,11.4z"/>
<path class="st4" d="M435,58.5c-3.1,0-6.1-0.9-8.7-2.6c-2.6-1.7-4.6-4.1-5.8-7c-1.2-2.8-1.5-6-0.9-9c0.6-3,2.1-5.8,4.3-8
	c2.2-2.2,5-3.7,8-4.3c3-0.6,6.2-0.3,9,0.9c2.9,1.2,5.3,3.2,7,5.7c1.7,2.6,2.6,5.6,2.6,8.7c0,4.1-1.6,8.1-4.6,11
	C443.1,56.8,439.1,58.5,435,58.5L435,58.5z M435,30.9c-2.4,0-4.7,0.7-6.7,2c-2,1.3-3.5,3.2-4.5,5.4c-0.9,2.2-1.2,4.6-0.7,7
	c0.5,2.3,1.6,4.5,3.3,6.2c1.7,1.7,3.8,2.8,6.2,3.3c2.3,0.5,4.8,0.2,7-0.7c2.2-0.9,4.1-2.5,5.4-4.5c1.3-2,2-4.3,2-6.7
	c0-3.2-1.3-6.2-3.5-8.5C441.2,32.1,438.2,30.9,435,30.9z"/>
<path class="st4" d="M446,51.4l-2.5,2.5l4.6,4.6l2.5-2.5L446,51.4z"/>
<path class="st4" d="M447.7,61.2l8.5,8.5c1.1,1.1,3,1.1,4.1,0l1.4-1.4c1.1-1.1,1.1-3,0-4.1l-8.5-8.5c-1.1-1.1-3-1.1-4.1,0l-1.4,1.4
	C446.6,58.2,446.6,60.1,447.7,61.2z"/>
<path class="st5" d="M71.1,39.7H35.4c-7.8,0-14.1,6.3-14.1,14.1v29.6c0,7.8,6.3,14.1,14.1,14.1h35.7c7.8,0,14.1-6.3,14.1-14.1V53.8
	C85.2,46,78.9,39.7,71.1,39.7z"/>
<path class="st6" d="M53.3,81.1c-2.7,0-5.3-0.8-7.5-2.3s-4-3.6-5-6.1c-1-2.5-1.3-5.2-0.8-7.8c0.5-2.6,1.8-5,3.7-6.9
	c1.9-1.9,4.3-3.2,6.9-3.7c2.6-0.5,5.4-0.3,7.8,0.8c2.5,1,4.6,2.8,6.1,5c1.5,2.2,2.3,4.8,2.3,7.5c0,3.6-1.4,7-4,9.6
	C60.3,79.6,56.9,81.1,53.3,81.1L53.3,81.1z M53.3,58.1c-1.9,0-3.7,0.6-5.3,1.6c-1.6,1-2.8,2.5-3.5,4.3c-0.7,1.7-0.9,3.6-0.5,5.5
	c0.4,1.8,1.3,3.5,2.6,4.9c1.3,1.3,3,2.2,4.9,2.6c1.8,0.4,3.7,0.2,5.5-0.5c1.7-0.7,3.2-1.9,4.3-3.5c1-1.6,1.6-3.4,1.6-5.3
	c0-2.5-1-4.9-2.8-6.7C58.2,59.1,55.8,58.1,53.3,58.1L53.3,58.1z"/>
<path class="st7" d="M61.3,58.1L45.7,77"/>
<path class="st5" d="M496.7,171.4H356.4c-7.2,0-13.1,5.8-13.1,13v103.7c0,7.2,5.8,13,13.1,13h140.3c7.2,0,13.1-5.8,13.1-13V184.4
	C509.8,177.2,503.9,171.4,496.7,171.4z"/>
<path class="st8" d="M360.6,186.8c1.7,0,3.1-1.4,3.1-3.1c0-1.7-1.4-3.1-3.1-3.1c-1.7,0-3.1,1.4-3.1,3.1
	C357.4,185.4,358.9,186.8,360.6,186.8z"/>
<path class="st8" d="M372.9,186.8c1.7,0,3.1-1.4,3.1-3.1c0-1.7-1.4-3.1-3.1-3.1c-1.7,0-3.1,1.4-3.1,3.1
	C369.7,185.4,371.1,186.8,372.9,186.8z"/>
<path class="st8" d="M385.1,186.8c1.7,0,3.2-1.4,3.2-3.1c0-1.7-1.4-3.1-3.2-3.1c-1.7,0-3.1,1.4-3.1,3.1
	C382,185.4,383.4,186.8,385.1,186.8z"/>
<path class="st8" d="M343.4,196.8h166.4"/>
<path class="st8" d="M361,227h76"/>
<path class="st8" d="M361,253h128"/>
<path class="st8" d="M361,273h128"/>
<path class="st9" d="M300.1,243l-0.7-9.4l-58.4,2.9v9c0,0-13.1,12.5-18.3,95.7h105.1C327.8,341.2,339.4,267.6,300.1,243z"/>
<path class="st2" d="M241.1,245.5l59.1-2.5"/>
<path class="st2" d="M253.1,283.9l12.1,4.9l6.5,52.4"/>
<path class="st10" d="M177.2,224.9l16.1-53.2l35.5,13.3l-17,51c-1.5,4.5-4.8,8.2-9,10.3c-4.2,2.1-9.2,2.5-13.7,1.1
	c-4.5-1.4-8.3-4.6-10.5-8.8C176.4,234.3,175.9,229.4,177.2,224.9L177.2,224.9z"/>
<path class="st6" d="M202.1,143.2c0.7-2.4,2-4.7,3.6-6.7c1.6-2,3.6-3.6,5.9-4.8s4.7-1.9,7.3-2.1c2.5-0.2,5.1,0.1,7.5,0.8
	c2.4,0.8,4.7,2,6.6,3.7c1.9,1.7,3.5,3.7,4.7,6c1.2,2.3,1.8,4.8,2,7.3c0.2,2.5-0.1,5.1-1,7.5l-10,30l-35.5-13.3L202.1,143.2z"/>
<path class="st10" d="M204.6,220.9l-40.5-76.8c0,0,0.9-13.9-22.1-14.7c-0.3,0-0.6,0-0.9,0h-7.7c-0.7,0-1.4,0.2-1.9,0.7
	c-0.5,0.4-0.9,1.1-1,1.8c-0.1,0.4,0,0.8,0.1,1.1c0.1,0.4,0.3,0.7,0.5,1c0.2,0.3,0.5,0.6,0.8,0.7c0.3,0.2,0.7,0.3,1.1,0.4l7.8,1.1
	l-10.6,2.8l-2,0.7l-14.4-9.5c-0.5-0.4-1.1-0.5-1.7-0.5c-0.6,0.1-1.2,0.4-1.5,0.9c-0.4,0.5-0.5,1.1-0.5,1.7c0.1,0.6,0.4,1.2,0.9,1.5
	c0.9,0.7,2.3,2,3.9,3.3l-3.2-1.9c-0.5-0.3-1.1-0.4-1.7-0.2c-0.6,0.1-1.1,0.5-1.4,1c-0.3,0.5-0.4,1.1-0.3,1.7
	c0.1,0.6,0.4,1.1,0.9,1.5l2.8,2l-1.1-0.4c-0.6-0.2-1.2-0.3-1.9-0.1c-0.6,0.2-1.2,0.5-1.5,1.1c-0.2,0.3-0.4,0.7-0.5,1.1
	c-0.1,0.4,0,0.8,0.1,1.2c0.1,0.4,0.3,0.8,0.6,1.1c0.3,0.3,0.6,0.5,1,0.7l15.7,6.6c2.7,1.1,5.3,1.8,8.5,1.1l14-3.3l31.5,87.9
	L204.6,220.9z"/>
<path class="st11" d="M188,189.4l7.5,14.2"/>
<path class="st6" d="M233.6,129.8l-15.1,1.1c0,0-21.8,29.6,22.5,105.6l58.4-2.9l4.4-81.9l-7.2-23.2h-26.2L233.6,129.8z"/>
<path class="st11" d="M216.5,180.3c0,0-4.3-9.1-1.5-29.3"/>
<path class="st10" d="M352.1,214.2l-24.2-50.1l-33,18.7l24.8,47.7c2.2,4.2,6,7.3,10.5,8.8c4.5,1.4,9.4,1,13.7-1.1
	c4.2-2.1,7.5-5.8,9-10.3S354.1,218.5,352.1,214.2L352.1,214.2z"/>
<path class="st6" d="M314.8,137.4c-1.1-2.3-2.7-4.4-4.6-6.1c-1.9-1.7-4.1-3-6.6-3.8c-2.4-0.8-5-1.2-7.5-1c-2.6,0.2-5,0.9-7.3,2
	c-2.3,1.2-4.3,2.7-6,4.7c-1.7,1.9-2.9,4.2-3.7,6.6c-0.8,2.4-1.1,5-0.8,7.6c0.2,2.6,1,5,2.2,7.3l14.5,28.1l33-18.7L314.8,137.4z"/>
<path class="st11" d="M294.9,182.8l-12-23.2"/>
<path class="st10" d="M402.7,128.5c-0.4-0.5-0.9-0.9-1.5-1.1c-0.6-0.2-1.3-0.1-1.9,0.1l-7.1,2.8l6.6-5.6c0.5-0.4,0.9-1.1,1-1.8
	c0.1-0.7,0-1.4-0.4-2c-0.2-0.3-0.5-0.6-0.8-0.8c-0.3-0.2-0.7-0.3-1.1-0.4c-0.4-0.1-0.8,0-1.1,0.1c-0.4,0.1-0.7,0.3-1,0.5l-6.2,4.9
	l5.2-6.9c0.4-0.5,0.6-1.2,0.6-1.9c0-0.7-0.3-1.4-0.8-1.8c-0.3-0.3-0.6-0.4-1-0.6c-0.4-0.1-0.7-0.2-1.1-0.1c-0.4,0-0.7,0.1-1.1,0.3
	c-0.3,0.2-0.6,0.4-0.9,0.7L380,125.8l-10.6-2.8l7.8-1.1c0.4,0,0.7-0.2,1.1-0.4c0.3-0.2,0.6-0.4,0.8-0.7c0.2-0.3,0.4-0.6,0.5-1
	c0.1-0.4,0.1-0.8,0.1-1.1c-0.1-0.7-0.5-1.3-1-1.8c-0.5-0.4-1.2-0.7-1.9-0.7H369c-4.5,0-9,1.6-12.4,4.6c-0.1,0-0.1,0.1-0.2,0.1
	c-4.7,3.7-3,11.4-3,11.4l-29.1,82.2l28.8,12.8l16.6-88.3h10.6c0.7,0.1,1.3,0.1,2,0h0.1c1.1-0.1,2.3-0.4,3.3-0.8l15.7-5.6
	c0.4-0.2,0.7-0.4,1-0.7c0.3-0.3,0.5-0.7,0.6-1.1c0.1-0.4,0.1-0.8,0.1-1.2C403.1,129.2,402.9,128.9,402.7,128.5L402.7,128.5z"/>
<path class="st11" d="M335.7,180.3l-6.3,21.9"/>
<path class="st4" d="M232.5,62c-1.8,1.2-14,4.4-14.2,6.6c0,0,4,15.7-0.1,18.6c-11.1,7.9-14.6,23.4-14.6,23.4s29.2,21.9,107-1.1
	c0,0,0.9-9.3-13.2-16.1c-4.1-1.9-7.6-4.9-9.9-8.8c-1.3-2.2-2.2-4.6-2.5-7.1C283.6,69.8,262.4,41.4,232.5,62z"/>
<path class="st5" d="M233.6,85.4c0.1,1.8-0.3,3.7-1.2,5.3c-0.9,1.6-2.3,2.9-3.9,3.7c-1.6,0.8-3.5,1.1-5.3,0.9
	c-1.8-0.2-3.5-1-4.9-2.2c-1.4-1.2-2.4-2.8-2.9-4.6c-0.5-1.8-0.4-3.7,0.1-5.4c0.6-1.7,1.7-3.3,3.1-4.4c1.5-1.1,3.2-1.8,5-1.9
	c1.2-0.1,2.5,0.1,3.6,0.4c1.2,0.4,2.2,1,3.2,1.8c0.9,0.8,1.7,1.8,2.2,2.9C233.2,83,233.5,84.2,233.6,85.4L233.6,85.4z"/>
<path class="st10" d="M237.8,108.3l1.3,20.3c0.4,7.1,3.4,12,10.4,11.5c6-0.4,13.1-5.2,13.4-11.2L259.4,97L237.8,108.3z"/>
<path class="st10" d="M233.6,129.8l36.8-1.3c0,0-0.9,18.1-22.8,16.4C232.5,143.8,233.6,129.8,233.6,129.8z"/>
<path class="st5" d="M238.9,125l23.5-23l-24.8,4.2L238.9,125z"/>
<path class="st10" d="M244,111.6c-12,0-21.9-9.4-22.2-19.2l-0.7-23.1c-0.2-5.9,1.9-11.6,5.8-16c3.9-4.4,9.4-7.1,15.3-7.5l0,0
	c12.5-0.9,25.6,8.4,26.5,21l0.4,18.6C269.3,99.7,258.3,110.6,244,111.6z"/>
<path class="st12" d="M234.3,84.2l-0.7,5.7l3,0.1"/>
<path class="st13" d="M246.2,70.3c0,0-6.6-0.5-6.7,2.2c0,0,0,1.8,5.8,2.2s7.3-0.1,7.8-1.8C253.6,71.1,249.3,70.3,246.2,70.3z"/>
<path class="st13" d="M227,74.2c0,0,5-0.4,5.5,2c0,0,0.3,1.6-4.1,1.9s-5.8-0.3-5.8-1.7C222.4,74.8,224.6,74.2,227,74.2z"/>
<path class="st13" d="M229.9,82.1c0,0.4-0.1,0.8-0.3,1.2c-0.2,0.4-0.5,0.7-0.9,0.8c-0.4,0.2-0.8,0.2-1.2,0.2
	c-0.4-0.1-0.8-0.2-1.1-0.5c-0.3-0.3-0.5-0.7-0.6-1.1c-0.1-0.4-0.1-0.8,0.1-1.2c0.1-0.4,0.4-0.7,0.8-1c0.3-0.2,0.8-0.4,1.2-0.4
	c0.6,0,1.1,0.2,1.5,0.6S229.9,81.5,229.9,82.1L229.9,82.1z"/>
<path class="st13" d="M247.7,81.5c0,0.4-0.1,0.8-0.3,1.2c-0.2,0.4-0.5,0.7-0.9,0.8c-0.4,0.2-0.8,0.2-1.2,0.2
	c-0.4-0.1-0.8-0.2-1.1-0.5c-0.3-0.3-0.5-0.7-0.6-1.1c-0.1-0.4-0.1-0.8,0.1-1.2c0.1-0.4,0.4-0.7,0.8-1c0.3-0.2,0.8-0.4,1.2-0.4
	c0.6,0,1.1,0.2,1.5,0.6C247.4,80.4,247.6,80.9,247.7,81.5L247.7,81.5z"/>
<path class="st12" d="M241.5,94.1c0,0-3.1-1.4-6.9,1.8"/>
<path class="st4" d="M249.6,41.8c-3-0.2-6,0.2-8.9,0.9c-7.2,1.9-20.1,7.2-22.3,21c-0.7,3.6-0.2,4.9-0.2,4.9s24.1,0.9,38.3-5.8
	c2,8.7,3.9,14,12.5,22.5l7.6-11.4l8.6,7.7C285.3,81.8,285.3,43.7,249.6,41.8z"/>
<path class="st10" d="M281.5,85.5c0.1,1.8-0.3,3.7-1.2,5.3c-0.9,1.6-2.3,2.9-3.9,3.7c-1.6,0.8-3.5,1.1-5.3,0.9
	c-1.8-0.2-3.5-1-4.9-2.2c-1.4-1.2-2.4-2.8-2.9-4.6s-0.4-3.7,0.1-5.4s1.7-3.3,3.1-4.4s3.2-1.8,5-1.9c1.2-0.1,2.5,0.1,3.6,0.4
	c1.2,0.4,2.2,1,3.2,1.8c0.9,0.8,1.7,1.8,2.2,2.9C281.1,83.1,281.5,84.3,281.5,85.5L281.5,85.5z"/>
<path class="st12" d="M268.7,88.8c0,0-0.5-6.7,6.1-6.1"/>
</svg>
