<svg xmlns="http://www.w3.org/2000/svg" viewBox="10326.082 4383.071 18.372 18.5">
  <defs>
    <style>
      .cls-1 {
        fill: none;
        stroke: #fff;
        stroke-linejoin: round;
        stroke-miterlimit: 10;
      }
    </style>
  </defs>
  <g id="Group_89" data-name="Group 89" transform="translate(9172 3978)">
    <ellipse id="Ellipse_40" data-name="Ellipse 40" class="cls-1" cx="2.283" cy="2.283" rx="2.283" ry="2.283" transform="translate(1158.331 414.702)"/>
    <ellipse id="Ellipse_41" data-name="Ellipse 41" class="cls-1" cx="1.141" cy="1.141" rx="1.141" ry="1.141" transform="translate(1167.462 407.854)"/>
    <path id="Path_65" data-name="Path 65" class="cls-1" d="M11.562,11.913a4.971,4.971,0,0,0-.111-1.034l1.2-.691L11.125,7.552l-1.174.694A4.159,4.159,0,0,0,8.191,7.21V5.826H5.148V7.209A4.374,4.374,0,0,0,3.333,8.245L2.118,7.552.59,10.188l1.193.691a4.917,4.917,0,0,0,0,2.068l-1.2.692L2.1,16.275l1.229-.695a4.395,4.395,0,0,0,1.815,1.038V18H8.192V16.618A4.181,4.181,0,0,0,9.952,15.58l1.187.695,1.515-2.636-1.2-.692a5.023,5.023,0,0,0,.107-1.034Zm5.706-7.989a2.7,2.7,0,0,0-.075-.616l.756-.437-.761-1.318-.73.437a2.749,2.749,0,0,0-1.039-.619V.5H13.9v.873a2.934,2.934,0,0,0-1.093.617l-.772-.437-.768,1.318.754.437a2.572,2.572,0,0,0,0,1.233l-.759.437L12.018,6.3l.784-.437a2.941,2.941,0,0,0,1.094.619v.871h1.522V6.476a2.713,2.713,0,0,0,1.04-.619l.743.438.754-1.318L17.2,4.54A2.7,2.7,0,0,0,17.268,3.924Z" transform="translate(1153.998 405.071)"/>
  </g>
</svg>
