<svg xmlns="http://www.w3.org/2000/svg" viewBox="0 0 31.41 35"><defs><style>.cls-1{fill:#fff;}.cls-2{fill:#f73;}.cls-3{fill:#c3c3c3;}</style></defs><title>API</title><g id="Layer_2" data-name="Layer 2"><g id="Layer_1-2" data-name="Layer 1"><polygon class="cls-1" points="30.36 8.6 30.36 23.2 1.06 23.2 1.06 1 21.96 1 30.36 8.6"/><g id="CSV_Icon" data-name="CSV Icon"><rect id="Rectangle_60" data-name="Rectangle 60" class="cls-2" x="1" y="24" width="30" height="10"/><path class="cls-3" d="M31.4,23.8V9.4h0V9.2h0c0-.1-.1-.1-.1-.2L22.9.7A1.39,1.39,0,0,0,21.7,0H1.4A1.37,1.37,0,0,0,0,1.4V33.6H0A1.37,1.37,0,0,0,1.4,35H30.2a1.32,1.32,0,0,0,1.2-1.4V24C31.4,23.9,31.4,23.9,31.4,23.8ZM23,2.5l6.3,6.3H23ZM1.3,1.2H21.8a.1.1,0,0,0,.1.1h0V9.4a.65.65,0,0,0,.6.6h7.8V23.2H1.2V1.4C1.1,1.3,1.2,1.2,1.3,1.2ZM30.1,33.8H1.4a.22.22,0,0,1-.2-.2V24.4H30.3v9.2h0A.21.21,0,0,1,30.1,33.8Z"/></g><polygon class="cls-1" points="23 2.5 29.3 8.8 23 8.8 23 2.5"/><path class="cls-1" d="M13.3,30.86H11.42L11,32.11H9.82l1.95-5.78H13l1.94,5.78H13.69ZM11.71,30H13l-.64-2h0Z"/><path class="cls-1" d="M16.62,30v2.1H15.46V26.33h2.21a2.28,2.28,0,0,1,1.57.51,1.85,1.85,0,0,1,0,2.67,2.29,2.29,0,0,1-1.57.5Zm0-.89h1.05a1,1,0,0,0,.73-.26.94.94,0,0,0,.25-.67,1,1,0,0,0-.25-.69,1,1,0,0,0-.74-.27H16.62Z"/><path class="cls-1" d="M21.59,32.11H20.43V26.33h1.16Z"/><path class="cls-3" d="M15.7,15.85a3.65,3.65,0,1,1,3.65-3.65A3.65,3.65,0,0,1,15.7,15.85Zm0-6.05a2.4,2.4,0,1,0,2.4,2.4A2.4,2.4,0,0,0,15.7,9.8Z"/><path class="cls-3" d="M17.79,20.9h-4a.63.63,0,0,1-.62-.62V18.89a6.3,6.3,0,0,1-1.85-1.07L10,18.53a.63.63,0,0,1-.85-.23l-2-3.5a.63.63,0,0,1,.23-.85l1.21-.7a7.22,7.22,0,0,1-.08-1,7.13,7.13,0,0,1,.08-1.05l-1.2-.7a.62.62,0,0,1-.23-.85l2-3.49A.62.62,0,0,1,10,5.88l1.23.7a6.27,6.27,0,0,1,1.85-1.07V4.13a.63.63,0,0,1,.63-.63h4a.63.63,0,0,1,.63.63V5.51a5.89,5.89,0,0,1,1.78,1.06l1.17-.69a.63.63,0,0,1,.86.23l2,3.49a.63.63,0,0,1-.23.85l-1.21.7a7.13,7.13,0,0,1,.08,1,7.35,7.35,0,0,1-.07,1l1.21.7a.62.62,0,0,1,.23.85l-2,3.5a.62.62,0,0,1-.86.23l-1.19-.69a5.91,5.91,0,0,1-1.78,1.06v1.38A.63.63,0,0,1,17.79,20.9Zm-3.41-1.25h2.78V18.44a.62.62,0,0,1,.45-.6A5,5,0,0,0,19.7,16.6a.63.63,0,0,1,.74-.08l1,.6,1.38-2.41-1-.61a.63.63,0,0,1-.3-.67,6,6,0,0,0,0-2.48.62.62,0,0,1,.3-.67l1-.6L21.45,7.28l-1,.6a.62.62,0,0,1-.74-.07,4.86,4.86,0,0,0-2.08-1.24.63.63,0,0,1-.46-.6V4.76H14.38V6a.63.63,0,0,1-.46.6A5.16,5.16,0,0,0,11.77,7.8a.62.62,0,0,1-.73.08L10,7.27,8.57,9.69l1,.6a.63.63,0,0,1,.3.67,5.9,5.9,0,0,0,0,2.48.63.63,0,0,1-.3.67l-1,.6L10,17.14,11,16.52a.62.62,0,0,1,.73.08,5.19,5.19,0,0,0,2.16,1.24.62.62,0,0,1,.45.6Z"/></g></g></svg>