<svg xmlns="http://www.w3.org/2000/svg" viewBox="0 0 31.41 35"><defs><style>.cls-1{fill:#fff;}.cls-2{fill:#06740a;}.cls-3{fill:#c3c3c3;}</style></defs><title>CSV</title><g id="Layer_2" data-name="Layer 2"><g id="Layer_1-2" data-name="Layer 1"><polygon class="cls-1" points="30.36 8.8 30.36 23.8 1.06 23.8 1.06 1 21.96 1 30.36 8.8"/><g id="CSV_Icon" data-name="CSV Icon"><rect id="Rectangle_60" data-name="Rectangle 60" class="cls-2" x="1" y="24" width="30" height="10"/><path class="cls-3" d="M31.4,23.8V9.4h0V9.2h0c0-.1-.1-.1-.1-.2L22.9.7A1.39,1.39,0,0,0,21.7,0H1.4A1.37,1.37,0,0,0,0,1.4V33.6H0A1.37,1.37,0,0,0,1.4,35H30.2a1.32,1.32,0,0,0,1.2-1.4V24C31.4,23.9,31.4,23.9,31.4,23.8ZM23,2.5l6.3,6.3H23ZM1.3,1.2H21.8a.1.1,0,0,0,.1.1h0V9.4a.65.65,0,0,0,.6.6h7.8V23.2H1.2V1.4C1.1,1.3,1.2,1.2,1.3,1.2ZM30.1,33.8H1.4a.22.22,0,0,1-.2-.2V24.4H30.3v9.2h0A.21.21,0,0,1,30.1,33.8Z"/><path class="cls-3" d="M3.6,21.4H27.8a.65.65,0,0,0,.6-.6V17.9h0V12.3a.65.65,0,0,0-.6-.6H14.1V9.1a.65.65,0,0,0-.6-.6H3.6a.65.65,0,0,0-.6.6V20.8Q3.15,21.4,3.6,21.4Zm23.6-4H14.1V15.8H27.2Zm-14.3,0H4.2V15.8h8.7ZM4.2,14.6V12.9h8.7v1.7Zm0,5.7V18.6h8.7v1.7Zm9.9,0V18.6H27.2v1.7ZM27.2,13v1.7H14.1V13ZM12.9,9.8v2H4.2v-2Z"/></g><path class="cls-1" d="M12.8,30.12v0a1.8,1.8,0,0,1-.56,1.44,2.28,2.28,0,0,1-1.59.52A2.2,2.2,0,0,1,9,31.44a2.38,2.38,0,0,1-.64-1.72V28.59A2.43,2.43,0,0,1,9,26.87a2.11,2.11,0,0,1,1.63-.67,2.42,2.42,0,0,1,1.64.51,1.77,1.77,0,0,1,.58,1.44v0H11.69a1.13,1.13,0,0,0-.27-.82,1.11,1.11,0,0,0-.82-.27.93.93,0,0,0-.81.42,1.84,1.84,0,0,0-.29,1.07v1.15a1.79,1.79,0,0,0,.31,1.08,1,1,0,0,0,.85.42,1,1,0,0,0,.77-.27,1.18,1.18,0,0,0,.25-.83Z"/><path class="cls-1" d="M16.63,30.53A.67.67,0,0,0,16.4,30a2.32,2.32,0,0,0-.81-.38,4.61,4.61,0,0,1-1.51-.71,1.34,1.34,0,0,1-.51-1.11,1.39,1.39,0,0,1,.58-1.15,2.35,2.35,0,0,1,1.48-.45,2.33,2.33,0,0,1,1.54.48,1.51,1.51,0,0,1,.56,1.26v0H16.6a.84.84,0,0,0-.26-.66,1.06,1.06,0,0,0-.73-.23,1,1,0,0,0-.66.21.67.67,0,0,0-.23.52.57.57,0,0,0,.25.48,3.38,3.38,0,0,0,.87.4,3.75,3.75,0,0,1,1.44.7,1.43,1.43,0,0,1,.5,1.14,1.37,1.37,0,0,1-.58,1.16,2.5,2.5,0,0,1-1.52.43,2.72,2.72,0,0,1-1.59-.46,1.52,1.52,0,0,1-.64-1.38v0h1.12a.9.9,0,0,0,.3.75,1.26,1.26,0,0,0,.81.24,1.11,1.11,0,0,0,.7-.19A.63.63,0,0,0,16.63,30.53Z"/><path class="cls-1" d="M20.42,30.47l.07.32h0l.07-.3,1.25-4.2h1.21L21.1,32H19.92L18,26.28h1.21Z"/></g></g></svg>