<svg xmlns="http://www.w3.org/2000/svg" viewBox="0 0 31.41 35"><defs><style>.cls-1{fill:#fff;}.cls-2{fill:#135;}.cls-3{fill:#c3c3c3;}.cls-4{fill:none;stroke:#c3c3c3;stroke-linecap:round;stroke-linejoin:round;}</style></defs><title>KML</title><g id="Layer_2" data-name="Layer 2"><g id="Layer_1-2" data-name="Layer 1"><polygon class="cls-1" points="30.36 8.6 30.36 23.2 1.06 23.2 1.06 1 21.96 1 30.36 8.6"/><g id="CSV_Icon" data-name="CSV Icon"><rect id="Rectangle_60" data-name="Rectangle 60" class="cls-2" x="1" y="24" width="30" height="10"/><path class="cls-3" d="M31.4,23.8V9.4h0V9.2h0c0-.1-.1-.1-.1-.2L22.9.7A1.39,1.39,0,0,0,21.7,0H1.4A1.37,1.37,0,0,0,0,1.4V33.6H0A1.37,1.37,0,0,0,1.4,35H30.2a1.32,1.32,0,0,0,1.2-1.4V24C31.4,23.9,31.4,23.9,31.4,23.8ZM23,2.5l6.3,6.3H23ZM1.3,1.2H21.8a.1.1,0,0,0,.1.1h0V9.4a.65.65,0,0,0,.6.6h7.8V23.2H1.2V1.4C1.1,1.3,1.2,1.2,1.3,1.2ZM30.1,33.8H1.4a.22.22,0,0,1-.2-.2V24.4H30.3v9.2h0A.21.21,0,0,1,30.1,33.8Z"/></g><polygon class="cls-1" points="23 2.5 29.3 8.8 23 8.8 23 2.5"/><path class="cls-3" d="M15.7,4.24a7.94,7.94,0,1,1-7.93,7.9A7.94,7.94,0,0,1,15.7,4.24ZM8.67,10l.08.05A2,2,0,0,0,9,9.93l.46-.4a2.63,2.63,0,0,1,3.07-.44,10.66,10.66,0,0,1,1.11.62c1.56,1,3.09,2.12,4.68,3.12a12,12,0,0,0,4.09,1.64c.23,0,.33,0,.37-.22s.09-.56.17-.83,0-.24-.17-.28a5.49,5.49,0,0,1-2.12-1c-1.14-.89-2.25-1.82-3.35-2.76C16.53,8.73,15.8,8,15,7.39A4,4,0,0,0,11.5,6.6a2,2,0,0,0-.92.34A6.43,6.43,0,0,0,8.84,9.47C8.77,9.65,8.72,9.84,8.67,10Zm13.1,6.3-.09-.09-.28.07a9.73,9.73,0,0,1-3,.46,19.65,19.65,0,0,1-2.67-.33,22.79,22.79,0,0,1-4.35-1.51,4.67,4.67,0,0,0-1.42-.38.75.75,0,0,0-.69,1.16,7.33,7.33,0,0,0,3.05,3,3.43,3.43,0,0,0,.4.14c0-.17-.05-.27-.07-.36-.17-.69.11-1,.82-.84l.3.07a12.91,12.91,0,0,0,5.2.38,3.19,3.19,0,0,0,2.42-1.18C21.48,16.72,21.63,16.53,21.77,16.33ZM13.6,5.15l0,.13.22,0L15,5.37A5.13,5.13,0,0,1,18.58,7c.74.8,1.36,1.71,2.06,2.55a8.37,8.37,0,0,0,1,1,.63.63,0,0,0,.84,0c.25-.21.3-.41.17-.79a7,7,0,0,0-2.4-3.36,7.3,7.3,0,0,0-5.59-1.52C14.31,5,14,5.07,13.6,5.15Z"/><path class="cls-1" d="M10,29.69H9.53v2.41H8.37V26.33H9.53v2.36h.33l1.58-2.36h1.43l-2,2.69L13,32.11H11.55Z"/><path class="cls-1" d="M16.54,30.59h0l1.49-4.26h1.51v5.78H18.41V28.16h0l-1.43,4h-.79l-1.43-4h0v4H13.55V26.33h1.52Z"/><path class="cls-1" d="M21.33,31.22h2.59v.89H20.17V26.33h1.16Z"/><circle class="cls-4" cx="15.71" cy="12.18" r="7.94"/></g></g></svg>