<svg xmlns="http://www.w3.org/2000/svg" viewBox="0 0 31.41 35"><defs><style>.cls-1{fill:#fff;}.cls-2{fill:#be3232;}.cls-3{fill:#c3c3c3;}</style></defs><title>PDF_1</title><g id="Layer_2" data-name="Layer 2"><g id="Layer_1-2" data-name="Layer 1"><polygon class="cls-1" points="30.36 8.8 30.36 23.8 1.06 23.8 1.06 1 21.96 1 30.36 8.8"/><g id="CSV_Icon" data-name="CSV Icon"><rect id="Rectangle_60" data-name="Rectangle 60" class="cls-2" x="1" y="24" width="30" height="10"/><path class="cls-3" d="M31.4,23.8V9.4h0V9.2h0c0-.1-.1-.1-.1-.2L22.9.7A1.39,1.39,0,0,0,21.7,0H1.4A1.37,1.37,0,0,0,0,1.4V33.6H0A1.37,1.37,0,0,0,1.4,35H30.2a1.32,1.32,0,0,0,1.2-1.4V24C31.4,23.9,31.4,23.9,31.4,23.8ZM23,2.5l6.3,6.3H23ZM1.3,1.2H21.8a.1.1,0,0,0,.1.1h0V9.4a.65.65,0,0,0,.6.6h7.8V23.2H1.2V1.4C1.1,1.3,1.2,1.2,1.3,1.2ZM30.1,33.8H1.4a.22.22,0,0,1-.2-.2V24.4H30.3v9.2h0A.21.21,0,0,1,30.1,33.8Z"/></g><path class="cls-3" d="M24.24,13.92a11.62,11.62,0,0,0-5.18-.12,11.66,11.66,0,0,1-3.66-4.5A16.78,16.78,0,0,0,16,6.78c.18-.92.3-1.69.3-1.78a2.32,2.32,0,0,0-.72-1.91,1.6,1.6,0,0,0-1.26-.33,1.15,1.15,0,0,0-.82.51c-.73,1.07-.08,3.82.06,4.35a11.42,11.42,0,0,0,.51,1.72,30.26,30.26,0,0,1-1.88,4.39s-.6,1.15-1.37,2.47c-2.39,1-3.85,2.1-4.37,3.21a1.53,1.53,0,0,0-.08,1.29,1.48,1.48,0,0,0,1.13.83h.16a2.23,2.23,0,0,0,1.45-.71,21.55,21.55,0,0,0,2.56-3.64c.53-.22,1.1-.43,1.71-.64a35.76,35.76,0,0,1,5.34-1.45,11.49,11.49,0,0,0,1.73,1c1.58.71,2.82.9,3.69.57a1.46,1.46,0,0,0,.1-2.74ZM23.9,15.4c-.12.16-.91.49-3-.44l-.29-.14a8.32,8.32,0,0,1,3.13.23S24,15.16,23.9,15.4ZM14.81,6.56v0s0,.18-.1.52A6.71,6.71,0,0,1,14.52,4l0,0a.4.4,0,0,1,.28.08,1.21,1.21,0,0,1,.27.87S15,5.63,14.81,6.56Zm2.65,7.53A36.28,36.28,0,0,0,13,15.38l-.33.12c.34-.61.57-1.06.65-1.2a32.65,32.65,0,0,0,1.54-3.39A12.55,12.55,0,0,0,17.46,14.09ZM9.63,18.15A13.55,13.55,0,0,1,8.24,20a1,1,0,0,1-.58.33s-.07,0-.15-.12S7.75,19.22,9.63,18.15Z"/><path class="cls-1" d="M10,30v2.1H8.86V26.33h2.21a2.28,2.28,0,0,1,1.57.51,1.85,1.85,0,0,1,0,2.67,2.29,2.29,0,0,1-1.57.5Zm0-.89h1.05a1,1,0,0,0,.73-.26.94.94,0,0,0,.25-.67,1,1,0,0,0-.25-.69,1,1,0,0,0-.74-.27H10Z"/><path class="cls-1" d="M13.79,32.11V26.33h2a2.39,2.39,0,0,1,1.75.68,2.33,2.33,0,0,1,.69,1.74v1a2.33,2.33,0,0,1-.69,1.74,2.39,2.39,0,0,1-1.75.67Zm1.16-4.89v4h.86a1.13,1.13,0,0,0,.92-.43,1.67,1.67,0,0,0,.35-1.09v-1a1.66,1.66,0,0,0-.35-1.09,1.13,1.13,0,0,0-.92-.42Z"/><path class="cls-1" d="M22.15,29.71H19.93v2.4H18.77V26.33h3.78v.89H19.93v1.59h2.22Z"/></g></g></svg>