<svg xmlns="http://www.w3.org/2000/svg" viewBox="0 0 31.46 35.07"><defs><style>.cls-1{fill:#fff;}.cls-2{fill:#0071bc;}.cls-3{fill:#c3c3c3;}.cls-4{fill:none;stroke:#c3c3c3;stroke-miterlimit:10;}</style></defs><title>SHP</title><g id="Layer_2" data-name="Layer 2"><g id="Layer_1-2" data-name="Layer 1"><polygon class="cls-1" points="30.41 8.66 30.38 23.27 1.08 23.2 1.13 1 22.03 1.05 30.41 8.66"/><g id="CSV_Icon" data-name="CSV Icon"><rect id="Rectangle_60" data-name="Rectangle 60" class="cls-2" x="11.01" y="14.03" width="10" height="30" transform="translate(-13.06 44.98) rotate(-89.87)"/><path class="cls-3" d="M31.42,23.87v-.2l0-14.2h0v-.2h0c0-.1-.1-.1-.1-.2L23,.75a1.39,1.39,0,0,0-1.2-.7L1.48,0h0A1.37,1.37,0,0,0,.07,1.4L0,33.6H0A1.37,1.37,0,0,0,1.4,35l28.7.07h.1a1.32,1.32,0,0,0,1.2-1.4l0-9.6C31.42,24,31.42,24,31.42,23.87ZM23.07,2.55l6.29,6.31h-6.3ZM1.37,1.2l20.4,0h.1a.1.1,0,0,0,.1.1h0l0,8.1a.65.65,0,0,0,.6.6l7.8,0,0,13.2L1.22,23.2l0-21.8C1.17,1.3,1.27,1.2,1.37,1.2ZM30.1,33.87,1.4,33.8h0a.22.22,0,0,1-.2-.2l0-9.2,29.1.07,0,9.2h0A.21.21,0,0,1,30.1,33.87Z"/></g><path class="cls-1" d="M11.45,30.64a.68.68,0,0,0-.23-.54,2.33,2.33,0,0,0-.82-.38A4.63,4.63,0,0,1,8.88,29a1.34,1.34,0,0,1-.52-1.11,1.4,1.4,0,0,1,.58-1.16,2.36,2.36,0,0,1,1.49-.45,2.35,2.35,0,0,1,1.55.48A1.51,1.51,0,0,1,12.54,28v0H11.41a.84.84,0,0,0-.26-.66,1.07,1.07,0,0,0-.73-.23,1,1,0,0,0-.66.21.67.67,0,0,0-.23.53.58.58,0,0,0,.25.48,3.4,3.4,0,0,0,.88.4,3.77,3.77,0,0,1,1.45.7,1.44,1.44,0,0,1,.5,1.14A1.38,1.38,0,0,1,12,31.8a2.51,2.51,0,0,1-1.53.43,2.74,2.74,0,0,1-1.6-.46,1.53,1.53,0,0,1-.65-1.38v0H9.38a.91.91,0,0,0,.3.75,1.27,1.27,0,0,0,.82.24,1.12,1.12,0,0,0,.71-.19A.63.63,0,0,0,11.45,30.64Z"/><path class="cls-1" d="M18,32.14H16.8v-2.4H14.45v2.4H13.29V26.37h1.16v2.48H16.8V26.37H18Z"/><path class="cls-1" d="M20,30v2.09H18.86V26.37h2.21a2.27,2.27,0,0,1,1.57.51,1.85,1.85,0,0,1,0,2.67,2.29,2.29,0,0,1-1.57.5Zm0-.89h1.05a1,1,0,0,0,.73-.26.94.94,0,0,0,.25-.67,1,1,0,0,0-.25-.69,1,1,0,0,0-.74-.27H20Z"/><path class="cls-3" d="M24,5.29a.29.29,0,0,0-.28,0L19.79,7l-8.1-1.76a.29.29,0,0,0-.18,0L7.45,7.05a.29.29,0,0,0-.17.27V19.38a.29.29,0,0,0,.29.29l.12,0,4-1.75,8.1,1.76a.29.29,0,0,0,.18,0L24,17.87a.29.29,0,0,0,.17-.27V5.53A.29.29,0,0,0,24,5.29ZM18.64,15.42,16.86,13a2.2,2.2,0,1,1,3.56,0Zm-6.42,2,.67-.67,3.48-3.48,0,0,1.33,1.83L14.85,18Zm9.2-6a2.79,2.79,0,0,0-.81-1.75l-.25-.22,3.24-3.24v9.4L21,13.09A2.79,2.79,0,0,0,21.41,11.46ZM19.94,7.59l2.63-1.16L19.84,9.16a2.8,2.8,0,0,0-2.62.11L15.65,7.7l.81-.81,3.3.72A.29.29,0,0,0,19.94,7.59ZM11.66,5.84l4.12.9L14.42,8.1a.29.29,0,1,0,.41.41l.4-.4,1.52,1.52-.08.08a2.78,2.78,0,0,0-.6,3l-3.33,3.33L10,13.34l3.49-3.49a.29.29,0,0,0-.41-.41L11.42,11.1,7.86,7.54v0Zm-3.8,8.81V11.95l1.79-1.79L11,11.51Zm0-3.54V8.37L9.24,9.74Zm0,4.36,1.72-1.72.56.56L7.86,16.6Zm0,1.94,2.7-2.7,1.76,1.76-.86.86-3.6,1.58Zm11.93,1.65-4.27-.93,2.53-2.53.34.47a.29.29,0,0,0,.47,0l.27-.37,2.53,2.53ZM22.25,18l-2.76-2.76,1.21-1.66,2.89,2.89v.94Z"/><path class="cls-3" d="M18.64,10.31A1.37,1.37,0,1,0,20,11.68,1.37,1.37,0,0,0,18.64,10.31Zm0,2.15a.78.78,0,1,1,.78-.78A.78.78,0,0,1,18.64,12.46Z"/><path class="cls-3" d="M13.66,9.11a.29.29,0,1,0,.1-.35.3.3,0,0,0-.1.35Z"/><path class="cls-4" d="M24,5.29a.29.29,0,0,0-.28,0L19.79,7l-8.1-1.76a.29.29,0,0,0-.18,0L7.45,7.05a.29.29,0,0,0-.17.27V19.38a.29.29,0,0,0,.29.29l.12,0,4-1.75,8.1,1.76a.29.29,0,0,0,.18,0L24,17.87a.29.29,0,0,0,.17-.27V5.53A.29.29,0,0,0,24,5.29Z"/><polygon class="cls-1" points="23.07 2.55 29.35 8.86 23.05 8.85 23.07 2.55"/></g></g></svg>