<?xml version="1.0" encoding="utf-8"?>
<!-- Generator: Adobe Illustrator 21.1.0, SVG Export Plug-In . SVG Version: 6.00 Build 0)  -->
<svg version="1.1" id="Layer_1" xmlns="http://www.w3.org/2000/svg" xmlns:xlink="http://www.w3.org/1999/xlink" x="0px" y="0px"
	 viewBox="0 0 41.5 41.5" style="enable-background:new 0 0 41.5 41.5;" xml:space="preserve">
<style type="text/css">
	.st0{fill:#95989A;}
</style>
<title>Map-Blue</title>
<g>
	<path class="st0" d="M41.2,0.6c0-0.2-0.2-0.4-0.3-0.5c-0.1-0.1-0.3-0.1-0.4-0.1c-0.3-0.1-0.7-0.1-1,0.1l-9.2,4.7L11.4,0
		c-0.3-0.1-0.7-0.1-1,0.1L0.8,5.1C0.4,5.4,0.1,5.8,0,6.4c0,0.1,0,0.1,0,0.2c0,0,0,0,0,0v12.9c0,0,0,0,0,0c0,0,0,0,0,0v15.4
		c0,0,0,0,0,0c0,0,0,0,0,0v5.1c0,0.5,0.2,1,0.6,1.3c0.2,0.2,0.5,0.3,0.8,0.3c0.2,0,0.4-0.1,0.6-0.2l9.2-4.7l18.9,4.8
		c0.3,0.1,0.7,0.1,1-0.1l9.6-5c0.5-0.3,0.8-0.8,0.8-1.4V1.6C41.5,1.2,41.4,0.9,41.2,0.6z M28.8,28.8l-5.3-6.8
		c-1.3-2.1-1.3-4.8,0.1-6.8c1.9-2.9,5.8-3.7,8.7-1.8c2.9,1.9,3.7,5.8,1.8,8.7L28.8,28.8z M12.5,35.4l10.3-11.8l3.4,4.4l-7.8,9
		L12.5,35.4z M5.3,13.1l-3.8,4.3V8.6L5.3,13.1z M1.5,19.7l4.8-5.4l3.2,3.8l-3.8,4.6c0,0,0,0,0,0c-0.1,0-0.1,0.1-0.1,0.2l-4,4.8V19.7
		z M1.5,30l4.7-5.5L7.5,26l-6,6.8V30z M7.2,23.3L19.5,8.6l3.8,4.5c-2.4,2.4-2.9,6.2-1.3,9.2c-0.1,0-0.2,0.1-0.3,0.2L14,31.3
		L7.2,23.3z M35.3,23c1.8-2.6,1.8-5.9,0.2-8.6c-0.7-1.2-1.7-2.1-2.9-2.7L40,2.6v27.7L34.5,24L35.3,23z M30.7,6.3l7.5-3.8l-7,8.7
		c-2.1-0.7-4.5-0.4-6.5,0.8c-0.1,0.1-0.2,0.1-0.2,0.2l-3.9-4.7L23,4.5l7.2,1.8C30.4,6.4,30.6,6.4,30.7,6.3z M11.1,1.5l10.2,2.6
		L10.5,16.9L1.6,6.4L11.1,1.5z M1.5,39.9v-4.9l7-7.9l4.5,5.2c0,0,0.1,0.1,0.1,0.1l-2.4,2.8L1.5,39.9z M30.4,40l-10.3-2.6l7.1-8.2
		l1,1.3c0.1,0.2,0.4,0.3,0.6,0.3c0.2,0,0.3-0.1,0.5-0.2l6,7L30.4,40z M36.6,36.8l-6.4-7.5l3.3-4.1l6.4,7.2c0,0,0.1,0,0.1,0.1v2.6
		L36.6,36.8z"/>
	<path class="st0" d="M28.8,14.8c-2.1,0-3.8,1.7-3.8,3.8c0,2.1,1.7,3.8,3.8,3.8s3.8-1.7,3.8-3.8C32.6,16.5,30.9,14.8,28.8,14.8z
		 M28.8,20.9c-1.3,0-2.3-1-2.3-2.3c0-1.3,1-2.3,2.3-2.3v0c1.3,0,2.3,1,2.3,2.3C31.1,19.9,30.1,20.9,28.8,20.9z"/>
</g>
</svg>
