<?xml version="1.0" encoding="utf-8"?>
<!-- Generator: Adobe Illustrator 21.1.0, SVG Export Plug-In . SVG Version: 6.00 Build 0)  -->
<svg version="1.1" id="Layer_1" xmlns="http://www.w3.org/2000/svg" xmlns:xlink="http://www.w3.org/1999/xlink" x="0px" y="0px"
	 viewBox="0 0 41 40" style="enable-background:new 0 0 41 40;" xml:space="preserve">
<style type="text/css">
	.st0{fill:#FFFFFF;}
</style>
<title>Asset 1</title>
<g id="Layer_2">
	<g id="Layer_1-2">
		<path class="st0" d="M30,18V0.7C30,0.3,29.7,0,29.3,0h-6.5C22.4,0,22,0.3,22,0.7c0,0,0,0,0,0v20.6c-1,1.1-1.9,2.4-2.4,3.8V8.7
			c0-0.4-0.3-0.7-0.7-0.7h-6.5c-0.4,0-0.7,0.3-0.7,0.7c0,0,0,0,0,0v23.6H9.3V16c0-0.4-0.3-0.7-0.7-0.7c0,0,0,0,0,0H2
			c-0.4,0-0.7,0.3-0.7,0.7l0,0v16.3H0.7c-0.4,0-0.7,0.3-0.7,0.7c0,0.4,0.3,0.7,0.7,0.7H20c2.7,5.5,9.2,7.7,14.7,5.1
			c5.5-2.7,7.7-9.2,5.1-14.7C38,20.4,34.2,18,30,18z M28.6,1.5v16.6c-1.8,0.2-3.6,0.9-5.1,2V1.5H28.6z M13.1,9.4h5.1v22.9h-5.1V9.4z
			 M2.8,16.7h5.1v15.6H2.8V16.7z M29.9,38.5c-5.3,0-9.6-4.3-9.6-9.6c0-5.3,4.3-9.6,9.6-9.6c5.3,0,9.6,4.3,9.6,9.6c0,0,0,0,0,0
			C39.5,34.3,35.2,38.5,29.9,38.5z"/>
		<path class="st0" d="M34.5,24.2L34.5,24.2c0-0.1-0.1-0.2-0.2-0.2h-0.1c-0.1-0.1-0.2-0.1-0.3-0.2h-0.1h-7.3c-0.4,0-0.7,0.3-0.7,0.7
			s0.3,0.7,0.7,0.7H32c-1,0.9-2.4,2.4-4.6,4.8c-1.1,1.2-2.1,2.2-2.4,2.5c-0.3,0.2-0.4,0.7-0.2,1s0.7,0.4,1,0.2
			c0.1-0.1,0.1-0.1,0.2-0.2c0.4-0.4,1.3-1.3,2.5-2.6c1.3-1.4,3.5-3.7,4.8-5v5.7c0,0.4,0.3,0.7,0.7,0.7c0.4,0,0.7-0.3,0.7-0.7v-7.3
			C34.6,24.4,34.6,24.3,34.5,24.2z"/>
	</g>
</g>
</svg>
