<?xml version="1.0" encoding="utf-8"?>
<!-- Generator: Adobe Illustrator 21.1.0, SVG Export Plug-In . SVG Version: 6.00 Build 0)  -->
<svg version="1.1" id="Layer_1" xmlns="http://www.w3.org/2000/svg" xmlns:xlink="http://www.w3.org/1999/xlink" x="0px" y="0px"
	 viewBox="0 0 43.5 40" style="enable-background:new 0 0 43.5 40;" xml:space="preserve">
<style type="text/css">
	.st0{fill:#FFFFFF;}
</style>
<title>2.Finance</title>
<g id="Layer_2">
	<g id="Layer_1-2">
		<path class="st0" d="M42.5,9.1L23.8,0.4c-0.9-0.5-2-0.5-3-0.1l-19,9c-0.6,0.3-0.9,0.9-0.9,1.5c0,0.7,0.4,1.4,1,1.7l3.2,1.4
			c-0.4,1.7-0.5,3.5-0.3,5.2c0,0.9,0.1,1.8,0,2.6l0,0c-1.4,0.3-2.4,1.8-2,3.2c0.2,0.9,0.8,1.6,1.7,1.9c0,0.1-0.1,0.2-0.1,0.3
			c-0.1,4-1.7,7.4-4.1,8.9c-0.3,0.2-0.5,0.6-0.3,1c0.1,0.1,0.1,0.2,0.2,0.2l3.5,2.6c0.3,0.2,0.7,0.2,0.9,0c2.8-2.6,2.3-5,1.8-7.8
			c-0.4-1.6-0.6-3.2-0.6-4.8c0-0.1,0-0.1,0-0.2c1.5-0.3,2.4-1.7,2.2-3.1c-0.2-1-0.8-1.8-1.8-2.1c0,0,0-0.1,0-0.1c0-0.9,0-1.8,0-2.7
			c-0.1-1.5-0.1-3.1,0.2-4.6l2.3,1.1c-0.1,0.1-0.1,0.2-0.1,0.4v7.8c0,4,6,7.1,13.7,7.1s13.7-3.1,13.7-7.1v-8.2c0-0.1,0-0.1,0-0.2
			l6.5-3.1c0.6-0.3,0.9-0.9,0.9-1.5C43.5,10.1,43.1,9.4,42.5,9.1z M4.2,38.3L2,36.7c1.4-1.2,2.5-2.7,3.1-4.5v0.1
			C5.6,34.7,5.9,36.4,4.2,38.3z M6.7,24.3c0,0.7-0.6,1.2-1.2,1.2S4.2,25,4.2,24.3s0.6-1.2,1.2-1.2h0C6.2,23.1,6.7,23.7,6.7,24.3
			C6.7,24.3,6.7,24.4,6.7,24.3L6.7,24.3z M34.7,23.6c0,3.1-5.6,5.6-12.3,5.6s-12.3-2.6-12.3-5.6v-7.4l10.5,4.9c0.9,0.5,2,0.5,3,0.1
			l11-5.2L34.7,23.6z M42,11l-19,9c-0.6,0.2-1.2,0.1-1.8-0.1L8.4,13.8l13.8-2.8c0.4-0.1,0.6-0.5,0.6-0.9c-0.1-0.4-0.5-0.6-0.9-0.6
			l0,0L6.2,12.7l-3.6-1.6c-0.1-0.1-0.2-0.2-0.2-0.3c0-0.1,0-0.2,0-0.3l19-9c0.6-0.2,1.2-0.1,1.8,0.1l18.7,8.7
			c0.1,0.1,0.2,0.2,0.2,0.3C42,10.8,42,10.9,42,11z"/>
	</g>
</g>
</svg>
