<?xml version="1.0" encoding="utf-8"?>
<!-- Generator: Adobe Illustrator 21.1.0, SVG Export Plug-In . SVG Version: 6.00 Build 0)  -->
<svg version="1.1" id="Layer_1" xmlns="http://www.w3.org/2000/svg" xmlns:xlink="http://www.w3.org/1999/xlink" x="0px" y="0px"
	 viewBox="0 0 39.6 40" style="enable-background:new 0 0 39.6 40;" xml:space="preserve">
<style type="text/css">
	.st0{fill:#FFFFFF;}
</style>
<title>Asset 4</title>
<g id="Layer_2">
	<g id="Layer_1-2">
		<path class="st0" d="M24.8,29.4c1.6,1.6,4.2,2,6.2,0.8c0.3-0.2,0.6-0.5,0.9-0.8l0.3-0.3c2,0.2,3.9-0.6,5.3-2
			c2.3-2.3,2.6-5.8,0.8-8.5c1.9-2.1,1.7-5.3-0.4-7.1c-0.3-0.2-0.5-0.4-0.8-0.6c-0.1-1.6-0.9-3.1-2-4.2c-2.1-2.1-5.4-2.6-8-1.2
			c-0.3,0.1-0.5,0.3-0.8,0.5c-0.1-1.5-0.7-3-1.8-4.1c-2.2-2.2-5.6-2.5-8.1-0.6l-0.1,0.1c-0.6,0.7-1.1,1.4-1.5,1.7
			c-1.3-0.2-2.6,0.2-3.7,1c-0.4,0.3-0.7,0.6-1,1L9.7,4.9c-4-1.2-8.2,1.1-9.4,5C0.1,10.7,0,11.4,0,12.2c0,1.2,0.3,2.4,0.9,3.5
			c0.4,0.7,0.9,1.4,1.5,2l0,0c-0.1,0.4-0.1,0.8-0.1,1.2c0,1.5,0.6,3,1.6,4.1c0.7,0.8,1.6,1.3,2.6,1.6c0.2,1.3,0.8,2.5,1.7,3.4
			c1.7,1.8,4.4,2.3,6.7,1.2L14,36.8C9.9,37,5.9,37.6,2,38.6c-0.4,0.1-0.6,0.5-0.5,0.9C1.5,39.8,1.9,40,2.2,40h0.2
			c5.4-1.4,10.9-2,16.5-2h1c6.9,0,13.2,0.7,17.5,1.9c0.1,0,0.1,0,0.2,0c0.4,0,0.7-0.3,0.8-0.7c0-0.3-0.2-0.7-0.6-0.7
			c-4.2-1.1-8.4-1.7-12.7-1.9l-1.3-7.5l0.5-0.5C24.4,28.9,24.6,29.2,24.8,29.4z M9.1,27c-0.8-0.8-1.3-1.9-1.3-3
			c0-0.3-0.3-0.6-0.6-0.7c-0.9-0.2-1.7-0.7-2.4-1.3c-0.8-0.8-1.3-2-1.2-3.1c0-0.3,0-0.6,0.1-0.9c0-0.1,0.1-0.2,0.1-0.4
			c0.1-0.3,0-0.6-0.2-0.8c-2.6-2.2-2.9-6-0.7-8.6c1.8-2.1,4.7-2.7,7.2-1.6c0.3,0.2,0.8,0,0.9-0.3c0.3-0.4,0.6-0.8,1-1.1
			C12.9,4.6,14,4.4,15,4.6c0.4,0.1,0.7-0.2,1-0.5c0.3-0.4,0.8-1,1.4-1.7c1.9-1.4,4.5-1.2,6.2,0.5C24.5,3.8,25,5,25,6.3
			c0,0.4-0.1,0.7-0.2,1.1c-0.1,0.4,0.1,0.8,0.5,0.9c0,0,0,0,0,0l0.2,0.1c0.3,0.1,0.6,0,0.8-0.2c1-1.3,2.5-2,4.1-2
			c1.4,0,2.7,0.6,3.7,1.6c1,1,1.5,2.3,1.6,3.7c0,0.3,0.2,0.5,0.4,0.6c1.8,0.9,2.6,3,1.7,4.8c-0.2,0.5-0.5,0.9-0.9,1.2
			c-0.3,0.3-0.3,0.7-0.1,1c1.7,2.1,1.6,5.2-0.3,7.1c-1,1-2.2,1.5-3.6,1.5c-0.1-0.1-0.2-0.1-0.3-0.1c-0.1,0-0.3,0-0.4,0l-0.3,0.1
			c-0.3,0-0.5,0.3-0.9,0.7c-0.2,0.2-0.4,0.4-0.7,0.6c-1.6,1-3.8,0.5-4.8-1.1c-0.1-0.1-0.1-0.2-0.2-0.3l2.5-4.2l3.1-6.3
			c0.3-0.8,0-1.7-0.8-2c-0.8-0.3-1.7,0-2,0.8l-4.4,6.4l-3.1,2.3l-2.5-5l2.6-5.5c0.4-0.7,0.2-1.7-0.6-2.1c-0.4-0.2-0.8-0.3-1.2-0.2
			c-0.4,0.1-0.7,0.4-0.9,0.7l-2.6,4l-5.1-4.9c-0.6-0.6-1.6-0.6-2.2,0.1c-0.3,0.3-0.4,0.7-0.4,1.1c0,0.4,0.2,0.7,0.4,1l4.5,5.7l1.8,7
			c0,0.2,0.1,0.6,0.3,1.2v0.2C12.9,28.7,10.6,28.5,9.1,27z M19.9,36.6h-1c-1.2,0-2.3,0-3.5,0.1l0.8-8c0.1-0.2,0-0.6-0.3-1.6
			c-0.1-0.4-0.2-0.8-0.3-1c0,0,0-0.1,0-0.1l-1.8-7.2c0-0.1-0.1-0.2-0.1-0.3l-4.7-5.8c0,0-0.1-0.2-0.1-0.2c0,0,0.1,0,0.1,0l5.6,5.3
			c0.1,0.4,0.6,0.6,0.9,0.4c0.1-0.1,0.3-0.2,0.4-0.3l3.1-4.9c0,0,0.1,0,0.1,0c0,0,0.1,0.1,0,0.2l-2.8,5.9c-0.1,0.2-0.1,0.4,0,0.6
			l3.1,6.1c0.2,0.4,0.6,0.5,1,0.3c0,0,0.1,0,0.1-0.1l3.9-2.9c0.1,0,0.1-0.1,0.2-0.2l4.5-6.5c0,0,0.1-0.1,0.1-0.1
			c0-0.1,0.1-0.1,0.1-0.1c0,0,0,0,0,0c0,0,0.1,0,0.1,0.1l-3,6.2L23.8,27l-1.3,1.5c-0.1,0.2-0.2,0.4-0.2,0.6l1.3,7.6
			C22.4,36.6,21.2,36.6,19.9,36.6L19.9,36.6z"/>
	</g>
</g>
</svg>
