<?xml version="1.0" encoding="utf-8"?>
<!-- Generator: Adobe Illustrator 21.1.0, SVG Export Plug-In . SVG Version: 6.00 Build 0)  -->
<svg version="1.1" id="Layer_1" xmlns="http://www.w3.org/2000/svg" xmlns:xlink="http://www.w3.org/1999/xlink" x="0px" y="0px"
	 viewBox="0 0 39.1 40" style="enable-background:new 0 0 39.1 40;" xml:space="preserve">
<style type="text/css">
	.st0{fill:#FFFFFF;}
</style>
<title>Asset 5</title>
<g id="Layer_2">
	<g id="Layer_1-2">
		<path class="st0" d="M27.2,16.2c-1,0-2,0.1-3,0.4v-6.4H30c0.4,0,0.7-0.3,0.7-0.7V5.1c0-0.4-0.3-0.7-0.7-0.7h-3.5V0.7
			c0-0.4-0.3-0.7-0.7-0.7H3C2.6,0,2.3,0.3,2.3,0.7v4.4c0,0.4,0.3,0.7,0.7,0.7h3.6v2.9H0.7C0.3,8.8,0,9.1,0,9.5c0,0,0,0,0,0v26.4
			c0,0.4,0.3,0.7,0.7,0.7c0,0,0,0,0,0h18.1c4.7,4.6,12.2,4.5,16.8-0.1c4.6-4.7,4.5-12.2-0.1-16.8C33.3,17.4,30.3,16.2,27.2,16.2z
			 M21.7,17.6H1.5v-2.9h21.3v2.5C22.4,17.2,22,17.4,21.7,17.6z M1.5,27.8h13.9c0,0.1,0,0.2,0,0.3c0,0.9,0.1,1.8,0.3,2.6H1.5V27.8z
			 M15.4,26.3h-14v-2.9h14.8C15.9,24.3,15.6,25.3,15.4,26.3L15.4,26.3z M17,22H1.5v-3h18.1C18.5,19.9,17.7,20.9,17,22z M3.8,1.5H25
			v2.9H3.8V1.5z M8,5.8h21.3v2.9H8V5.8z M22.7,10.2v2.9H1.5v-2.9H22.7z M1.4,32.2H16c0.4,1.1,0.9,2,1.6,3H1.5L1.4,32.2z M27.1,38.6
			c-5.8,0-10.4-4.7-10.4-10.5c0-5.8,4.7-10.4,10.5-10.4c5.7,0,10.4,4.7,10.4,10.4C37.6,33.9,32.9,38.5,27.1,38.6L27.1,38.6z"/>
		<path class="st0" d="M27.2,27.4L27.2,27.4c-1.6,0-2.8-0.5-3.2-1.2c-0.2-0.4-0.2-0.8,0.1-1.2c0.4-0.6,1.5-1.2,3.4-1
			c1,0.2,1.9,0.4,2.8,0.7l0.2,0.1c0.4,0.1,0.8-0.1,0.9-0.5c0.1-0.4-0.1-0.8-0.5-0.9l-0.2-0.1c-0.9-0.3-1.9-0.6-2.8-0.8v-2.2
			c0-0.4-0.3-0.7-0.7-0.7s-0.7,0.3-0.7,0.7v2.1c-1.4,0-2.7,0.6-3.5,1.6c-0.6,0.8-0.6,1.8-0.2,2.7c0.7,1.3,2.3,2,4.5,2
			c1.6,0,2.7,0.5,3.1,1.2c0.2,0.4,0.2,0.9-0.1,1.2c-0.5,0.8-1.8,1.1-3.3,1c-0.9-0.1-1.9-0.4-2.8-0.7L24,31.5
			c-0.4-0.1-0.8,0.1-0.9,0.5c-0.1,0.4,0.1,0.8,0.5,0.9l0.2,0.1c0.9,0.3,1.8,0.6,2.8,0.8v2.2c0,0.4,0.3,0.7,0.7,0.7s0.7-0.3,0.7-0.7
			v-2.1c1.4,0.1,2.7-0.5,3.5-1.6c0.6-0.8,0.6-1.9,0.2-2.7C30.9,28.1,29.4,27.4,27.2,27.4z"/>
	</g>
</g>
</svg>
