<?xml version="1.0" encoding="utf-8"?>
<!-- Generator: Adobe Illustrator 21.1.0, SVG Export Plug-In . SVG Version: 6.00 Build 0)  -->
<svg version="1.1" id="Layer_1" xmlns="http://www.w3.org/2000/svg" xmlns:xlink="http://www.w3.org/1999/xlink" x="0px" y="0px"
	 viewBox="0 0 44.8 40" style="enable-background:new 0 0 44.8 40;" xml:space="preserve">
<style type="text/css">
	.st0{fill:#FFFFFF;}
</style>
<title>Asset 6</title>
<g id="Layer_2">
	<g id="Layer_1-2">
		<path class="st0" d="M41.4,3.9C39.1,1.4,35.8,0,32.3,0c-8.1,0-9.3,4.4-9.9,7.1C21.9,4.4,20.6,0,12.5,0C9.1,0,5.8,1.4,3.4,3.9
			C-1,8.5-1.1,14.3,3,21.2c0.2,0.3,0.6,0.5,1,0.2s0.5-0.6,0.2-1C0.5,14.2,0.6,9,4.5,4.9c2.1-2.2,5-3.5,8.1-3.5c7.3,0,8,3.6,8.6,6.2
			c0.1,0.8,0.4,1.6,0.8,2.2c0.3,0.3,0.7,0.3,1,0c0.5-0.6,0.7-1.4,0.8-2.2C24.3,5,25,1.4,32.3,1.4c3,0,6,1.3,8.1,3.5
			c2.2,2.1,3.3,5.1,3,8.1c-0.3,3.6-2.3,7.3-5,10.8h-7.4l-2.6-9.1c-0.1-0.4-0.5-0.6-0.9-0.5c-0.2,0.1-0.4,0.3-0.5,0.5
			c-1.7,5.9-3.1,9.8-4.9,14.9l-1.8-5.3c-0.1-0.3-0.4-0.5-0.7-0.5h-3.4L13.3,9.1c-0.1-0.3-0.4-0.6-0.7-0.6l0,0
			c-0.4,0-0.6,0.3-0.7,0.6L9.5,23.8H0.7c-0.4,0-0.7,0.3-0.7,0.7s0.3,0.7,0.7,0.7h9.4c0.4,0,0.7-0.3,0.7-0.6l1.8-11.2l2.1,11.2
			c0.1,0.3,0.4,0.6,0.7,0.6H19l2.3,6.7c0.1,0.3,0.4,0.5,0.7,0.5l0,0c0.3,0,0.6-0.2,0.7-0.5l0.6-1.6c1.7-4.6,2.9-8.1,4.4-12.9
			l2.1,7.2c0.1,0.3,0.4,0.5,0.7,0.5h6.8c-4.1,4.7-8.8,9-13.9,12.6l-0.5,0.4l-0.3,0.2l-0.3-0.2l-0.7-0.5C17.6,35,14,32,10.7,28.6
			c-0.3-0.2-0.8-0.1-1,0.2c-0.2,0.2-0.2,0.6,0,0.8c3.4,3.4,7,6.6,10.9,9.4l0.6,0.5c0.3,0.3,0.7,0.5,1.2,0.5c0.4-0.1,0.9-0.3,1.2-0.6
			l0.5-0.4c3.3-2.3,19.6-14.5,20.7-25.9C45.1,9.7,43.9,6.3,41.4,3.9z"/>
	</g>
</g>
</svg>
