<?xml version="1.0" encoding="utf-8"?>
<!-- Generator: Adobe Illustrator 21.1.0, SVG Export Plug-In . SVG Version: 6.00 Build 0)  -->
<svg version="1.1" id="Layer_1" xmlns="http://www.w3.org/2000/svg" xmlns:xlink="http://www.w3.org/1999/xlink" x="0px" y="0px"
	 viewBox="0 0 32.8 40" style="enable-background:new 0 0 32.8 40;" xml:space="preserve">
<style type="text/css">
	.st0{fill:#FFFFFF;}
</style>
<title>Asset 7</title>
<g id="Layer_2">
	<g id="Layer_1-2">
		<path class="st0" d="M4.2,12.1h1.4v2.2H4.2V12.1z M7.5,12.1H9v2.2H7.5V12.1z M10.9,12.1h1.4v2.2h-1.4V12.1z M4.2,16.4h1.4v2.2H4.2
			V16.4z M7.5,16.4H9v2.2H7.5V16.4z M10.9,16.4h1.4v2.2h-1.4V16.4z M4.2,20.7h1.4v2.2H4.2V20.7z M7.5,20.7H9v2.2H7.5V20.7z
			 M10.9,20.7h1.4v2.2h-1.4V20.7z M4.2,24.9h1.4v2.2H4.2V24.9z M7.5,24.9H9v2.2H7.5V24.9z M10.9,24.9h1.4v2.2h-1.4V24.9z M4.2,29.1
			h1.4v2.2H4.2V29.1z M7.5,29.1H9v2.2H7.5V29.1z M10.9,29.1h1.4v2.2h-1.4V29.1z M4.2,33.4h1.4v2.2H4.2V33.4z M7.5,33.4H9v2.2H7.5
			V33.4z M10.9,33.4h1.4v2.2h-1.4V33.4z M19.2,22.8h-1.4v-2.2h1.4L19.2,22.8z M22.6,22.8h-1.4v-2.2h1.4L22.6,22.8z M25.9,22.8h-1.4
			v-2.2h1.4L25.9,22.8z M19.2,27h-1.4v-2.1h1.4L19.2,27z M22.6,27h-1.4v-2.1h1.4V27z M25.9,27h-1.4v-2.1h1.4L25.9,27z M19.2,31.3
			h-1.4v-2.1h1.4L19.2,31.3z M22.6,31.3h-1.4v-2.1h1.4L22.6,31.3z M25.9,31.3h-1.4v-2.1h1.4L25.9,31.3z M17.8,35.5v-2.1h1.4v2.2
			L17.8,35.5z M22.6,35.5h-1.4v-2.1h1.4L22.6,35.5z M25.9,35.5h-1.4v-2.1h1.4L25.9,35.5z"/>
		<path class="st0" d="M28.6,40H1.5C0.7,40,0,39.3,0,38.5c0,0,0,0,0,0V9.1c0-0.8,0.7-1.5,1.5-1.5h13.6c0.8,0,1.5,0.7,1.5,1.5l0,0V16
			h12.1c0.8,0,1.5,0.7,1.5,1.5v21.1C30.1,39.3,29.5,40,28.6,40L28.6,40z M1.5,9.1v29.4l0,0h27.2V17.4H15.8c-0.4,0-0.7-0.3-0.7-0.7
			V9.1L1.5,9.1z"/>
		<path class="st0" d="M16.5,5.2c-0.4,0-0.7-0.3-0.8-0.7c0-0.3,0.2-0.7,0.6-0.7l11-3.2c0.2-0.1,0.5,0,0.6,0.1l4.2,3.2
			c0.3,0.3,0.3,0.7,0.1,1s-0.7,0.3-1,0.1l-4-3L16.6,5.1C16.6,5.1,16.5,5.2,16.5,5.2z"/>
		<path class="st0" d="M32,5.2H16.5c-0.4,0-0.7-0.3-0.7-0.7s0.3-0.7,0.7-0.7H32c0.4,0,0.7,0.3,0.7,0.7S32.5,5.2,32,5.2z"/>
		<path class="st0" d="M26.1,17.4L26.1,17.4c-0.5,0-0.8-0.4-0.7-0.8c0,0,0,0,0,0l1.4-16c0-0.4,0.4-0.7,0.7-0.6l0,0
			c0.4,0,0.7,0.3,0.7,0.7l1.3,16c0,0.4-0.3,0.7-0.7,0.8s-0.7-0.3-0.8-0.7l0,0l-0.6-7.5l-0.7,7.5C26.7,17.2,26.4,17.4,26.1,17.4z"/>
		<path class="st0" d="M21.1,10.1c-0.4,0-0.7-0.3-0.7-0.7V4.5c0-0.4,0.3-0.7,0.7-0.7s0.7,0.3,0.7,0.7v4.9
			C21.9,9.8,21.5,10.1,21.1,10.1C21.1,10.1,21.1,10.1,21.1,10.1z"/>
		<path class="st0" d="M21.6,12.8h-1c-1.1-0.1-2-1.1-1.9-2.2c0.1-1,0.9-1.8,1.9-1.9h1c1.1,0.1,2,1.1,1.9,2.2
			C23.5,11.9,22.7,12.7,21.6,12.8z M20.6,10.1c-0.3,0-0.6,0.3-0.6,0.6c0,0.3,0.3,0.6,0.6,0.6h1c0.3,0,0.6-0.3,0.6-0.6
			c0-0.3-0.3-0.6-0.6-0.6H20.6z"/>
	</g>
</g>
</svg>
