<?xml version="1.0" encoding="utf-8"?>
<!-- Generator: Adobe Illustrator 21.1.0, SVG Export Plug-In . SVG Version: 6.00 Build 0)  -->
<svg version="1.1" id="Layer_1" xmlns="http://www.w3.org/2000/svg" xmlns:xlink="http://www.w3.org/1999/xlink" x="0px" y="0px"
	 viewBox="0 0 49.9 40" style="enable-background:new 0 0 49.9 40;" xml:space="preserve">
<style type="text/css">
	.st0{fill:#FFFFFF;}
</style>
<title>Asset 8</title>
<g id="Layer_2">
	<g id="Layer_1-2">
		<path class="st0" d="M27.1,40c-0.8,0-1.6-0.4-2.1-0.9c-0.6,0.6-1.4,0.9-2.2,0.9c-1.5,0-2.7-1.1-2.9-2.5l0.2-18.8l-5.6-3.2
			c-1.3-0.6-1.9-2.1-1.3-3.4c0-0.1,0-0.1,0.1-0.2c0.7-1.2,2.3-1.6,3.5-0.8c0,0,0,0,0,0l2.4,1.4l3.1,1.6c1.7-0.1,3.5-0.1,5.2,0
			l3.1-1.7L33,11c1.2-0.8,2.8-0.4,3.5,0.8c0,0,0,0,0,0c0.7,1.3,0.2,2.9-1,3.5c-0.1,0-0.1,0.1-0.2,0.1l-5.6,3.2L30,37.4
			c0,0.6-0.3,1.2-0.7,1.6C28.7,39.6,27.9,40,27.1,40z M25.7,37.5c0.2,0.6,0.8,1,1.4,1c0.4,0,0.8-0.2,1.2-0.5
			c0.2-0.2,0.3-0.4,0.3-0.6l-0.2-19.2c0-0.3,0.1-0.5,0.4-0.6l6-3.4c0.9-0.5,0.9-1.2,0.7-1.6c-0.3-0.5-1-0.7-1.5-0.4
			c0,0-0.1,0-0.1,0.1l-2.4,1.3l-3.3,1.8c-0.1,0-0.1,0.1-0.2,0.1c-0.1,0-0.1,0-0.2,0c-1.8-0.2-3.6-0.2-5.4,0h-0.2
			c-0.1,0-0.2,0-0.2-0.1l-3.2-1.8l-2.4-1.4c-0.5-0.4-1.2-0.3-1.6,0.2c0,0,0,0.1-0.1,0.1c-0.2,0.4-0.2,1.1,0.7,1.6l6,3.4
			c0.2,0.1,0.4,0.4,0.4,0.6l-0.2,19.3c0,0.5,0.8,1.1,1.5,1.1c0.6,0,1.2-0.4,1.4-1c0,0,0,0,0-0.1V26.7c0-0.4,0.3-0.7,0.7-0.7
			s0.7,0.3,0.7,0.7v10.7C25.7,37.4,25.7,37.4,25.7,37.5C25.7,37.5,25.7,37.5,25.7,37.5L25.7,37.5z"/>
		<path class="st0" d="M24.9,14.4c-2.3,0-4.1-1.8-4.1-4.1s1.8-4.1,4.1-4.1c2.3,0,4.1,1.8,4.1,4.1c0,0,0,0,0,0
			C29,12.6,27.2,14.4,24.9,14.4z M24.9,7.7c-1.5,0-2.7,1.2-2.7,2.7s1.2,2.6,2.7,2.6s2.6-1.2,2.6-2.6c0,0,0,0,0,0
			C27.6,8.9,26.4,7.7,24.9,7.7z"/>
		<path class="st0" d="M14.2,33.8c-1.5,0-2.7-1.1-2.9-2.5V20.4c0-0.4,0.3-0.7,0.7-0.7c0.4,0,0.7,0.3,0.7,0.7l0,0v10.8
			c0,0.5,0.8,1.1,1.4,1.1c0.4,0,0.9-0.2,1.2-0.5c0.2-0.2,0.3-0.4,0.3-0.6l-0.2-15c0-0.4,0.3-0.7,0.7-0.7c0.4,0,0.7,0.3,0.7,0.7
			l0.2,15c0,0.6-0.3,1.2-0.7,1.6C15.8,33.4,15,33.7,14.2,33.8z"/>
		<path class="st0" d="M16.5,12.3c-0.4,0-0.7-0.3-0.7-0.7c0-0.3,0.1-0.5,0.4-0.7l5.1-2.7c0.4-0.2,0.8-0.1,1,0.3
			c0.2,0.4,0.1,0.8-0.3,1l0,0l-5.1,2.7C16.7,12.3,16.6,12.3,16.5,12.3z"/>
		<path class="st0" d="M9.9,33.8c-1.5,0-2.7-1.1-2.9-2.5l0.2-18.8L1.5,9.2C0.2,8.6-0.3,7,0.2,5.7c0,0,0-0.1,0.1-0.1
			C1,4.4,2.6,3.9,3.8,4.6c0,0,0.1,0,0.1,0.1l2.4,1.3l3.1,1.7c1.7-0.1,3.5-0.1,5.2,0l3.1-1.7l2.4-1.3c0.8-0.5,1.7-0.5,2.6-0.1
			c0.7,0.4,1.2,1.1,1.3,1.9c0,0.4-0.2,0.8-0.6,0.8c-0.4,0-0.8-0.2-0.8-0.6l0,0c0-0.3-0.3-0.6-0.6-0.8c-0.4-0.2-0.8-0.1-1.2,0.1
			l-2.4,1.3l-3.2,1.8c-0.1,0-0.1,0.1-0.2,0.1h-0.2c-1.8-0.2-3.6-0.2-5.4,0H9.2c-0.1,0-0.2,0-0.3-0.1L5.6,7.3L3.2,6
			C2.7,5.6,2,5.7,1.6,6.2c0,0,0,0.1-0.1,0.1C1.3,6.8,1.4,7.4,2.3,7.9l6,3.4c0.2,0.1,0.4,0.4,0.4,0.6L8.4,31.2c0,0.5,0.8,1.1,1.4,1.1
			s1.4-0.6,1.4-1.1c0-0.4,0.3-0.7,0.7-0.7c0.4,0,0.7,0.3,0.7,0.7C12.6,32.7,11.4,33.8,9.9,33.8z"/>
		<path class="st0" d="M12,8.2c-2.3,0-4.1-1.8-4.1-4.1S9.7,0,12,0s4.1,1.8,4.1,4.1l0,0C16.1,6.4,14.3,8.2,12,8.2z M12,1.4
			c-1.5,0-2.7,1.2-2.7,2.7s1.2,2.7,2.6,2.7s2.7-1.2,2.7-2.7l0,0C14.6,2.6,13.5,1.5,12,1.4z"/>
		<path class="st0" d="M40,33.8c-1.5,0-2.7-1.1-2.9-2.5V20.4c0-0.4,0.3-0.7,0.7-0.7c0.4,0,0.7,0.3,0.7,0.7v10.8
			c0,0.5,0.8,1.1,1.5,1.1c0.4,0,0.9-0.2,1.2-0.5c0.2-0.1,0.3-0.4,0.3-0.6L41.2,12c0-0.3,0.1-0.5,0.4-0.6l6-3.4
			c0.9-0.5,0.9-1.2,0.7-1.7c-0.3-0.5-1-0.7-1.5-0.4c0,0-0.1,0-0.1,0.1l-2.5,1.3L41,9.1c-0.1,0-0.1,0.1-0.2,0.1h-0.2
			c-1.8-0.2-3.6-0.2-5.4,0H35c-0.1,0-0.2,0-0.3-0.1l-3.3-1.8L29,6c-0.4-0.2-0.8-0.3-1.2-0.1c-0.3,0.1-0.5,0.4-0.6,0.8
			c-0.1,0.4-0.4,0.7-0.8,0.6c-0.4-0.1-0.7-0.4-0.6-0.8l0,0c0.1-0.8,0.6-1.5,1.4-1.9c0.8-0.4,1.8-0.3,2.5,0.1l2.4,1.4l3.1,1.7
			c1.7-0.1,3.5-0.1,5.2,0l3.1-1.7L46,4.7c1.2-0.8,2.8-0.4,3.5,0.8c0,0,0,0,0,0c0.7,1.3,0.2,2.9-1,3.5c-0.1,0-0.1,0.1-0.2,0.1
			l-5.6,3.2L43,31.2c0,0.6-0.3,1.2-0.7,1.6C41.7,33.4,40.9,33.8,40,33.8z"/>
		<path class="st0" d="M32.9,12.2c-0.1,0-0.3,0-0.4-0.1l-5.1-2.9c-0.3-0.2-0.5-0.6-0.3-1c0.2-0.3,0.6-0.5,1-0.3l5.1,2.9
			c0.3,0.2,0.5,0.6,0.3,1C33.4,12.1,33.2,12.2,32.9,12.2L32.9,12.2z"/>
		<path class="st0" d="M35.7,33.8c-1.5,0-2.7-1.1-2.9-2.5L33,15.6c0-0.4,0.3-0.7,0.7-0.7l0,0c0.4,0,0.7,0.3,0.7,0.7c0,0,0,0,0,0
			l-0.2,15.6c0,0.5,0.8,1.1,1.5,1.1s1.5-0.6,1.5-1.1c0-0.4,0.3-0.7,0.7-0.7c0.4,0,0.7,0.3,0.7,0.7C38.4,32.7,37.2,33.8,35.7,33.8z"
			/>
		<path class="st0" d="M37.8,8.2c-2.3,0-4.1-1.8-4.1-4.1S35.6,0,37.8,0s4.1,1.8,4.1,4.1l0,0C41.9,6.4,40.1,8.2,37.8,8.2z M37.8,1.4
			c-1.5,0-2.6,1.2-2.6,2.7s1.2,2.6,2.7,2.6s2.6-1.2,2.6-2.7c0,0,0,0,0,0C40.5,2.6,39.3,1.4,37.8,1.4z"/>
	</g>
</g>
</svg>
