<?xml version="1.0" encoding="utf-8"?>
<!-- Generator: Adobe Illustrator 21.1.0, SVG Export Plug-In . SVG Version: 6.00 Build 0)  -->
<svg version="1.1" id="Layer_1" xmlns="http://www.w3.org/2000/svg" xmlns:xlink="http://www.w3.org/1999/xlink" x="0px" y="0px"
	 viewBox="0 0 46.9 40" style="enable-background:new 0 0 46.9 40;" xml:space="preserve">
<style type="text/css">
	.st0{fill:#FFFFFF;}
</style>
<title>Asset 9</title>
<g id="Layer_2">
	<g id="Layer_1-2">
		<path class="st0" d="M43.6,40H3.3c-0.2,0-0.4-0.1-0.6-0.3l-2.6-3.3C0.1,36.3,0,36.1,0,36v-1.2C0,34.4,0.2,34,0.6,34
			c0,0,0.1,0,0.1,0h17.1c0.2,0,0.4,0.1,0.5,0.2l1.3,1.3h7.6l1.3-1.3c0.1-0.1,0.3-0.2,0.5-0.2h17.1c0.4,0,0.7,0.3,0.7,0.7
			c0,0,0,0,0,0V36c0,0.2-0.1,0.3-0.2,0.5l-2.6,3.3C44,39.9,43.8,40,43.6,40z M3.6,38.5h39.7l2.2-2.8v-0.2H29.4l-1.3,1.3
			C28,36.9,27.8,37,27.6,37h-8.2c-0.2,0-0.4-0.1-0.5-0.2l-1.3-1.3H1.5v0.2L3.6,38.5z"/>
		<path class="st0" d="M20.7,31.9c-0.4,0-0.7-0.3-0.7-0.7v-1.4c0-0.4,0.3-0.7,0.7-0.7s0.7,0.3,0.7,0.7v1.4
			C21.5,31.6,21.2,31.9,20.7,31.9C20.8,31.9,20.7,31.9,20.7,31.9z"/>
		<path class="st0" d="M18,31.9c-0.4,0-0.7-0.3-0.7-0.7v-1.4c0-0.4,0.3-0.7,0.7-0.7s0.7,0.3,0.7,0.7v1.4
			C18.7,31.6,18.4,31.9,18,31.9C18,31.9,18,31.9,18,31.9z"/>
		<path class="st0" d="M23.5,31.9c-0.4,0-0.7-0.3-0.7-0.7v-1.4c0-0.4,0.3-0.7,0.7-0.7s0.7,0.3,0.7,0.7v1.4
			C24.2,31.6,23.9,31.9,23.5,31.9C23.5,31.9,23.5,31.9,23.5,31.9z"/>
		<path class="st0" d="M26.2,31.9c-0.4,0-0.7-0.3-0.7-0.7v-1.4c0-0.4,0.3-0.7,0.7-0.7s0.7,0.3,0.7,0.7v1.4
			C26.9,31.6,26.6,31.9,26.2,31.9C26.2,31.9,26.2,31.9,26.2,31.9z"/>
		<path class="st0" d="M28.9,31.9c-0.4,0-0.7-0.3-0.7-0.7v-1.4c0-0.4,0.3-0.7,0.7-0.7s0.7,0.3,0.7,0.7v1.4
			C29.7,31.6,29.3,31.9,28.9,31.9C28.9,31.9,28.9,31.9,28.9,31.9z"/>
		<path class="st0" d="M23.5,27.4c-0.4,0-0.7-0.3-0.7-0.7V2.1c0-0.4,0.3-0.7,0.7-0.7h13c0.4,0,0.7,0.3,0.7,0.7s-0.3,0.7-0.7,0.7
			H24.2v23.8C24.2,27.1,23.9,27.4,23.5,27.4L23.5,27.4z"/>
		<path class="st0" d="M20.7,27.4c-0.4,0-0.7-0.3-0.7-0.7c0,0,0,0,0,0V0.8C20,0.4,20.3,0,20.7,0s0.7,0.3,0.7,0.7v25.9
			C21.5,27.1,21.1,27.4,20.7,27.4z"/>
		<path class="st0" d="M28.9,27.4c-0.4,0-0.7-0.3-0.7-0.7V15.8c0-0.4,0.3-0.7,0.7-0.7H33c0.4,0,0.7,0.3,0.7,0.7
			c0,0.4-0.3,0.7-0.7,0.7h-3.4v10.2C29.7,27.1,29.3,27.4,28.9,27.4C28.9,27.4,28.9,27.4,28.9,27.4z"/>
		<path class="st0" d="M20.7,1.5h-8.9c-0.4,0-0.7-0.3-0.7-0.7S11.5,0,11.9,0h8.9c0.4,0,0.7,0.3,0.7,0.7S21.1,1.5,20.7,1.5z"/>
		<path class="st0" d="M26.2,27.4c-0.4,0-0.7-0.3-0.7-0.7V4.9c0-0.4,0.3-0.7,0.7-0.7s0.7,0.3,0.7,0.7v21.8
			C26.9,27.1,26.6,27.4,26.2,27.4C26.2,27.4,26.2,27.4,26.2,27.4z"/>
		<path class="st0" d="M18,27.4c-0.4,0-0.7-0.3-0.7-0.7V15.1h-6.8c-0.4,0-0.7-0.3-0.7-0.7c0-0.4,0.3-0.7,0.7-0.7l0,0H18
			c0.4,0,0.7,0.3,0.7,0.7v12.3C18.7,27.1,18.4,27.4,18,27.4z"/>
		<path class="st0" d="M5.6,1.5H4.9c-0.4,0-0.7-0.3-0.7-0.7S4.5,0,4.9,0l0,0h0.7C6,0,6.3,0.3,6.3,0.7S6,1.5,5.6,1.5z"/>
		<path class="st0" d="M9.1,1.5H8.4C8,1.5,7.7,1.1,7.7,0.7S8,0,8.4,0h0.7c0.4,0,0.7,0.3,0.7,0.7S9.5,1.5,9.1,1.5z"/>
		<path class="st0" d="M39.9,2.9h-0.7c-0.4,0-0.7-0.3-0.7-0.7s0.3-0.7,0.7-0.7h0.7c0.4,0,0.7,0.3,0.7,0.7S40.3,2.9,39.9,2.9z"/>
		<path class="st0" d="M43.4,2.9h-0.7c-0.4,0-0.7-0.3-0.7-0.7s0.3-0.7,0.7-0.7l0,0h0.7c0.4,0,0.7,0.3,0.7,0.7S43.8,2.9,43.4,2.9z"/>
		<path class="st0" d="M43.2,31.9H31.8c-0.4,0-0.7-0.3-0.7-0.7s0.3-0.7,0.7-0.7h10.6V9.9c0-1.3-1-2.3-2.3-2.3l0,0H6.8
			c-1.3,0-2.3,1-2.3,2.3l0,0v20.5h10.6c0.4,0,0.7,0.3,0.7,0.7s-0.3,0.7-0.7,0.7H3.8c-0.4,0-0.7-0.3-0.8-0.7c0,0,0,0,0-0.1V9.9
			c0-2.1,1.7-3.8,3.8-3.8c0,0,0,0,0,0h33.4c2.1,0,3.8,1.7,3.8,3.8v21.2C43.9,31.6,43.6,31.9,43.2,31.9
			C43.2,31.9,43.2,31.9,43.2,31.9z"/>
	</g>
</g>
</svg>
